<?xml version="1.0" standalone="no"?>
<!DOCTYPE svg PUBLIC "-//W3C//DTD SVG 20010904//EN"
 "http://www.w3.org/TR/2001/REC-SVG-20010904/DTD/svg10.dtd">
<svg version="1.0" xmlns="http://www.w3.org/2000/svg"
 width="512.000000pt" height="512.000000pt" viewBox="0 0 512.000000 512.000000"
 preserveAspectRatio="xMidYMid meet">

<g transform="translate(0.000000,512.000000) scale(0.100000,-0.100000)"
fill="#000000" stroke="none">
<path d="M0 2560 l0 -2560 2560 0 2560 0 0 2560 0 2560 -2560 0 -2560 0 0
-2560z m2782 1405 c237 -31 445 -98 693 -220 402 -199 792 -511 1149 -920 100
-114 131 -177 131 -265 0 -88 -31 -151 -130 -264 -261 -298 -530 -537 -820
-730 -314 -210 -584 -328 -896 -392 -122 -25 -154 -28 -349 -28 -194 0 -228 3
-345 27 -322 66 -615 196 -935 415 -268 183 -579 466 -815 742 -142 167 -139
290 13 473 101 123 381 401 515 512 606 502 1221 725 1789 650z"/>
<path d="M2449 3500 c-219 -26 -420 -128 -575 -293 -244 -259 -323 -616 -210
-950 49 -144 113 -244 231 -362 118 -118 218 -182 363 -231 258 -89 548 -58
785 82 111 66 265 220 331 331 103 174 149 387 126 586 -25 221 -112 399 -275
562 -162 162 -341 250 -557 274 -106 12 -122 12 -219 1z m280 -286 c179 -45
350 -182 429 -344 56 -114 76 -194 76 -310 0 -185 -66 -344 -198 -475 -136
-135 -289 -199 -476 -199 -187 0 -340 64 -476 199 -132 131 -198 290 -198 475
0 185 66 344 198 475 175 174 409 239 645 179z"/>
</g>
</svg>
