<?xml version="1.0" standalone="no"?>
<!DOCTYPE svg PUBLIC "-//W3C//DTD SVG 20010904//EN"
 "http://www.w3.org/TR/2001/REC-SVG-20010904/DTD/svg10.dtd">
<svg version="1.0" xmlns="http://www.w3.org/2000/svg"
 width="538.000000pt" height="550.000000pt" viewBox="0 0 538.000000 550.000000"
 preserveAspectRatio="xMidYMid meet">

<g transform="translate(0.000000,550.000000) scale(0.100000,-0.100000)"
fill="#000000" stroke="none">
<path d="M1017 4779 c-93 -22 -163 -80 -206 -169 l-26 -55 0 -1580 0 -1580 26
-55 c42 -87 101 -138 188 -164 49 -14 214 -16 1594 -16 1390 0 1544 2 1595 16
97 28 163 89 199 183 17 43 18 139 18 1616 0 1524 -1 1571 -19 1620 -25 65
-94 137 -159 166 l-52 24 -1560 2 c-889 0 -1576 -3 -1598 -8z m1774 -940 c295
-38 601 -170 874 -377 153 -116 391 -345 486 -466 26 -34 27 -32 -71 -157
-199 -254 -507 -510 -770 -640 -263 -130 -471 -176 -745 -166 -228 9 -379 49
-610 162 -286 139 -562 361 -832 668 l-104 118 43 52 c71 87 247 257 358 346
442 356 925 518 1371 460z"/>
<path d="M2445 3684 c-395 -58 -790 -270 -1119 -603 l-99 -100 78 -86 c328
-362 734 -620 1075 -685 184 -35 364 -32 540 10 339 81 701 322 988 658 34 40
62 77 62 82 0 6 -48 59 -107 118 -317 317 -631 506 -967 584 -68 15 -133 21
-256 23 -91 2 -178 1 -195 -1z m95 -725 l0 -570 -37 3 -38 3 -3 555 c-1 305 0
561 3 568 2 6 20 12 40 12 l35 0 0 -571z m226 546 c155 -40 306 -190 366 -363
19 -55 23 -88 23 -182 0 -94 -4 -127 -23 -182 -60 -173 -211 -323 -366 -363
-31 -8 -61 -15 -66 -15 -6 0 -10 212 -10 560 0 348 4 560 10 560 5 0 35 -7 66
-15z m-386 -545 c0 -430 -3 -540 -13 -540 -23 0 -139 74 -188 121 -63 61 -122
154 -151 237 -33 96 -33 268 0 364 29 83 88 176 151 237 49 47 165 121 188
121 10 0 13 -110 13 -540z"/>
</g>
</svg>
